<svg width="52" height="52" viewBox="0 0 52 52" fill="none" xmlns="http://www.w3.org/2000/svg">
<path d="M38 37V26.77C38 26.3457 37.6614 25.9921 37.2382 25.9921H31.082V22.8571H32.621V23.7921C32.621 24.1457 32.898 24.4286 33.2366 24.4286H35.8453C36.1916 24.4286 36.4686 24.1457 36.4686 23.8V17.2079C36.4686 16.8543 36.1916 16.5714 35.853 16.5714H33.2443C32.898 16.5714 32.621 16.8543 32.621 17.2079V18.1429H31.082V15.7229C31.082 15.3221 30.7664 15 30.374 15H18.708C18.3155 15 18 15.3221 18 15.7229V36.9843H19.5237V33.095C19.5237 32.6471 19.8776 32.2857 20.3163 32.2857H28.7503C29.1889 32.2857 29.5429 32.6471 29.5429 33.095V37H28.7811V33.3464C28.7811 33.1971 28.6656 33.0714 28.5117 33.0714H26.7572C26.611 33.0714 26.4879 33.1893 26.4879 33.3464V37H24.1562H38ZM31.082 34.6507V32.2857H32.2362C32.4517 32.2857 32.621 32.4664 32.621 32.6786V34.25C32.621 34.47 32.4517 34.6429 32.2362 34.6507H31.082ZM31.082 30.7221V28.3571H32.2362C32.4517 28.3571 32.621 28.5379 32.621 28.75V30.3214C32.621 30.5414 32.4517 30.7143 32.2362 30.7221H31.082ZM32.621 22.0714H31.082V18.9286H32.621V22.0714ZM36.4686 28.75V30.3214C36.4686 30.5414 36.2993 30.7143 36.0839 30.7221H34.5294C34.314 30.7221 34.1447 30.5414 34.1447 30.3293V28.75C34.1447 28.53 34.3217 28.3571 34.5294 28.3571H36.0839C36.2993 28.3571 36.4686 28.5379 36.4686 28.75ZM36.4686 32.6786V34.25C36.4686 34.47 36.2993 34.6429 36.0839 34.6507H34.5294C34.314 34.6507 34.1447 34.47 34.1447 34.2579V32.6786C34.1447 32.4586 34.3217 32.2857 34.5294 32.2857H36.0839C36.2993 32.2857 36.4686 32.4664 36.4686 32.6786ZM25.703 16.9643V18.5357C25.703 18.7557 25.5337 18.9286 25.3182 18.9286H23.7638C23.5483 18.9286 23.379 18.7479 23.379 18.5357V16.9643C23.379 16.7443 23.556 16.5714 23.7638 16.5714H25.3182C25.5337 16.5714 25.703 16.7521 25.703 16.9643ZM25.703 22.4643C25.703 22.6843 25.5337 22.8571 25.3182 22.8571H23.7638C23.5483 22.8571 23.379 22.6764 23.379 22.4643V20.8929C23.379 20.6729 23.556 20.5 23.7638 20.5H25.3182C25.5337 20.5 25.703 20.6807 25.703 20.8929V22.4643ZM25.703 24.8214V26.3929C25.703 26.6129 25.5337 26.7857 25.3182 26.7936H23.7638C23.5483 26.7936 23.379 26.6129 23.379 26.4007V24.8214C23.379 24.6014 23.556 24.4286 23.7638 24.4286H25.3182C25.5337 24.4286 25.703 24.6093 25.703 24.8214ZM25.703 28.75V30.3214C25.703 30.5414 25.5337 30.7143 25.3182 30.7221H23.7638C23.5483 30.7221 23.379 30.5414 23.379 30.3293V28.75C23.379 28.53 23.556 28.3571 23.7638 28.3571H25.3182C25.5337 28.3571 25.703 28.5379 25.703 28.75ZM29.5583 30.3214C29.5583 30.5414 29.3813 30.7143 29.1735 30.7221H27.6191C27.4036 30.7221 27.2343 30.5414 27.2343 30.3293V28.75C27.2343 28.53 27.4113 28.3571 27.6191 28.3571H29.1735C29.389 28.3571 29.5583 28.5379 29.5583 28.75V30.3214ZM29.5583 24.8214V26.3929C29.5583 26.6129 29.3813 26.7857 29.1735 26.7936H27.6191C27.4036 26.7936 27.2343 26.6129 27.2343 26.4007V24.8214C27.2343 24.6014 27.4113 24.4286 27.6191 24.4286H29.1735C29.389 24.4286 29.5583 24.6093 29.5583 24.8214ZM29.5583 22.4643C29.5583 22.6843 29.3813 22.8571 29.1735 22.8571H27.6191C27.4036 22.8571 27.2343 22.6764 27.2343 22.4643V20.8929C27.2343 20.6729 27.4036 20.5 27.6191 20.5H29.1735C29.389 20.5 29.5583 20.6807 29.5583 20.8929V22.4643ZM29.5583 16.9643V18.5357C29.5583 18.7557 29.3813 18.9286 29.1735 18.9286H27.6191C27.4036 18.9286 27.2343 18.7557 27.2343 18.5357V16.9643C27.2343 16.7443 27.4036 16.5714 27.6191 16.5714H29.1735C29.389 16.5714 29.5583 16.7521 29.5583 16.9643ZM21.8553 30.3214C21.8553 30.5414 21.686 30.7143 21.4706 30.7221H19.9161C19.7007 30.7221 19.5314 30.5414 19.5314 30.3293V28.75C19.5314 28.53 19.7083 28.3571 19.9161 28.3571H21.4706C21.686 28.3571 21.8553 28.5379 21.8553 28.75V30.3214ZM21.8553 24.8214V26.3929C21.8553 26.6129 21.686 26.7857 21.4706 26.7936H19.9161C19.7007 26.7936 19.5314 26.6129 19.5314 26.4007V24.8214C19.5314 24.6014 19.7083 24.4286 19.9161 24.4286H21.4706C21.686 24.4286 21.8553 24.6093 21.8553 24.8214ZM21.8553 22.4643C21.8553 22.6843 21.686 22.8571 21.4706 22.8571H19.9161C19.7007 22.8571 19.5314 22.6764 19.5314 22.4643V20.8929C19.5314 20.6729 19.7083 20.5 19.9161 20.5H21.4706C21.686 20.5 21.8553 20.6807 21.8553 20.8929V22.4643ZM21.8553 16.9643V18.5357C21.8553 18.7557 21.686 18.9286 21.4706 18.9286H19.9161C19.7007 18.9286 19.5314 18.7479 19.5314 18.5357V16.9643C19.5314 16.7443 19.7083 16.5714 19.9161 16.5714H21.4706C21.686 16.5714 21.8553 16.7521 21.8553 16.9643Z" fill="#164988"/>
<path d="M1.86032 18.1565L26 0.618033L50.1397 18.1565L40.9191 46.5344H11.0809L1.86032 18.1565Z" stroke="#164988"/>
</svg>
