<svg width="194" height="170" viewBox="0 0 194 170" fill="none" xmlns="http://www.w3.org/2000/svg">
<g clipPath="url(#clip0_6931_40038)">
<path d="M87.148 169.995C63.0306 169.995 38.9191 169.995 14.8017 169.995C5.55864 169.995 0.5 164.981 0.5 155.816C0.5 121.847 0.5 87.8783 0.5 53.9157C0.5 44.8887 5.58879 39.8389 14.675 39.8389C40.0707 39.8389 65.4664 39.8389 90.8621 39.8389C91.5374 39.8389 92.2247 39.8027 92.894 39.863C94.9078 40.0498 96.3066 41.496 96.3488 43.3762C96.391 45.3406 94.944 46.8652 92.8216 47.046C92.1464 47.1063 91.465 47.0701 90.7897 47.0701C65.4724 47.0701 40.1491 47.0701 14.8318 47.0701C9.56817 47.0701 7.74127 48.8779 7.74127 54.0904C7.74127 87.9807 7.74127 121.877 7.74127 155.767C7.74127 160.962 9.58022 162.77 14.8499 162.77C63.1572 162.77 111.458 162.77 159.766 162.77C165.132 162.77 166.917 160.98 166.917 155.581C166.917 141.648 166.917 127.716 166.917 113.778C166.917 113.025 166.844 112.248 167.001 111.524C167.405 109.699 168.587 108.602 170.486 108.572C172.385 108.542 173.591 109.626 174.043 111.434C174.224 112.145 174.146 112.928 174.146 113.682C174.146 127.765 174.152 141.847 174.146 155.936C174.146 164.855 169.039 169.995 160.17 169.995C135.829 169.995 111.489 169.995 87.148 169.995Z" fill="#164988"/>
<path d="M193.482 38.5717C193.596 48.7617 193.066 58.8975 190.425 68.8043C187.706 79.0003 181.447 86.9124 173.923 93.9508C167.284 100.158 159.808 105.207 151.741 109.389C150.215 110.179 148.738 110.721 147.032 109.847C134.135 103.225 122.769 94.7463 114.129 82.9172C108.239 74.8484 106.02 65.5683 104.971 55.8845C103.741 44.5375 103.916 33.1845 104.916 21.8254C105.17 18.945 105.941 17.9868 108.842 17.5349C122.751 15.3655 135.268 10.0506 146.224 1.14412C148.183 -0.446745 149.534 -0.362381 151.692 1.36709C161.755 9.44798 173.133 14.7147 185.825 16.9624C192.608 18.1616 192.626 17.8724 193.12 25.4832C193.259 27.6646 193.41 29.8461 193.464 32.0275C193.524 34.2089 193.476 36.3963 193.476 38.5777L193.482 38.5717ZM185.819 24.5914C185.282 24.3985 184.872 24.1936 184.438 24.1093C171.909 21.6868 160.435 16.8238 150.137 9.2672C149.039 8.45971 148.352 8.69473 147.387 9.39374C137.18 16.7877 125.856 21.6507 113.478 24.0309C112.218 24.272 111.796 24.8023 111.718 26.1039C111.139 36.1914 110.994 46.273 112.224 56.3244C113.122 63.6882 114.696 70.835 118.929 77.1684C126.285 88.1779 136.504 95.8309 147.906 102.104C148.491 102.429 149.636 102.194 150.312 101.833C157.034 98.2112 163.281 93.8845 168.864 88.666C175.086 82.8509 180.585 76.4272 183.021 68.0691C187.181 53.8055 186.614 39.2045 185.819 24.5914Z" fill="#164988"/>
<path d="M74.3479 106.089C84.646 109.674 91.4472 116.459 93.7443 127.029C94.5583 130.759 94.6005 134.857 94.0277 138.635C93.1836 144.185 88.0828 148.21 82.4574 148.247C66.4072 148.349 50.3631 148.367 34.3129 148.247C27.6927 148.192 22.5496 142.636 22.1878 136.002C21.398 121.431 29.7426 110.18 42.4887 106.077C36.393 99.8396 33.6557 92.524 35.362 83.9068C36.4835 78.2363 39.3896 73.5662 44.0021 70.0349C53.6008 62.6832 66.8654 63.6714 75.2704 72.2404C82.4393 79.55 85.9363 93.9883 74.3479 106.095V106.089ZM58.3882 141.07C66.0696 141.07 73.757 141.094 81.4384 141.058C84.6702 141.046 86.895 139.147 87.2809 136.237C88.752 125.173 81.0103 114.188 69.9706 112.663C63.9774 111.831 57.8033 112.175 51.7136 112.169C38.4068 112.145 29.3688 121.334 29.4412 134.67C29.4653 138.979 31.5032 141.058 35.7901 141.07C43.3208 141.088 50.8575 141.07 58.3882 141.07ZM74.6554 88.6312C74.6494 79.6886 67.3478 72.379 58.4304 72.379C49.3743 72.379 42.0787 79.7067 42.1089 88.7698C42.145 97.6763 49.5069 104.944 58.4484 104.907C67.396 104.865 74.6614 97.5738 74.6554 88.6372V88.6312Z" fill="#164988"/>
<path d="M130.963 141.07C136.613 141.07 142.269 141.058 147.918 141.07C150.77 141.076 152.422 142.426 152.422 144.679C152.422 146.927 150.758 148.289 147.912 148.289C136.456 148.301 125.006 148.301 113.551 148.289C110.705 148.289 109.047 146.927 109.053 144.673C109.053 142.42 110.705 141.076 113.563 141.07C119.363 141.058 125.169 141.07 130.969 141.07H130.963Z" fill="#164988"/>
<path d="M123.354 126.607C119.966 126.607 116.571 126.637 113.183 126.595C110.669 126.565 109.101 125.185 109.047 123.07C108.992 120.87 110.614 119.394 113.237 119.382C120.093 119.358 126.954 119.352 133.809 119.382C136.324 119.394 137.897 120.786 137.945 122.901C138 125.088 136.366 126.571 133.749 126.595C130.282 126.631 126.815 126.601 123.348 126.601L123.354 126.607Z" fill="#164988"/>
<path d="M144.53 63.6407C145.338 62.8754 145.941 62.321 146.519 61.7425C153.236 55.0356 159.935 48.3166 166.657 41.6217C168.707 39.5849 170.769 39.4161 172.373 41.0853C173.85 42.622 173.664 44.7913 171.801 46.6654C163.769 54.7162 155.732 62.7609 147.665 70.7816C145.428 73.0052 143.722 72.957 141.455 70.6972C136.221 65.4907 131 60.2722 125.79 55.0416C123.746 52.9867 123.56 50.9319 125.206 49.3229C126.791 47.7742 128.95 47.9972 130.946 49.9918C135.419 54.4571 139.869 58.9525 144.524 63.6347L144.53 63.6407Z" fill="#164988"/>
</g>
<defs>
<clipPath id="clip0_6931_40038">
<rect width="193" height="170" fill="white" transform="translate(0.5)"/>
</clipPath>
</defs>
</svg>
